<?xml version="1.0" encoding="iso-8859-1"?>
<!-- Generator: Adobe Illustrator 19.0.0, SVG Export Plug-In . SVG Version: 6.00 Build 0)  -->
<svg version="1.1" id="Capa_1" xmlns="http://www.w3.org/2000/svg" xmlns:xlink="http://www.w3.org/1999/xlink" x="0px" y="0px"
	 viewBox="0 0 480 480" style="enable-background:new 0 0 480 480;" xml:space="preserve">
<circle style="fill:#FDB62F;" cx="240" cy="84" r="80"/>
<path style="fill:#FFA12E;" d="M187.624,144.376c33.299,28.972,83.78,25.464,112.752-7.836c26.168-30.077,26.168-74.839,0-104.916
	L187.624,144.376z"/>
<circle style="fill:#FDB62F;" cx="392" cy="204" r="80"/>
<path style="fill:#FFA12E;" d="M339.624,264.376c33.299,28.972,83.78,25.464,112.752-7.836c26.168-30.077,26.168-74.839,0-104.916
	L339.624,264.376z"/>
<g>
	<circle style="fill:#FDB62F;" cx="128" cy="388" r="80"/>
	<circle style="fill:#FDB62F;" cx="352" cy="388" r="80"/>
</g>
<path style="fill:#FFA12E;" d="M299.624,448.376c33.299,28.972,83.78,25.463,112.752-7.836c26.168-30.077,26.168-74.839,0-104.916
	L299.624,448.376z"/>
<circle style="fill:#FDB62F;" cx="88" cy="204" r="80"/>
<path style="fill:#FFA12E;" d="M35.624,264.376c33.299,28.972,83.78,25.464,112.752-7.836c26.168-30.077,26.168-74.839,0-104.916
	L35.624,264.376z"/>
<g>
	<path style="fill:#DBDBDB;" d="M72,44h16v16H72V44z"/>
	<path style="fill:#DBDBDB;" d="M120,36h16v16h-16V36z"/>
	<path style="fill:#DBDBDB;" d="M56,84h16v16H56V84z"/>
	<path style="fill:#DBDBDB;" d="M0,324h16v16H0V324z"/>
	<path style="fill:#DBDBDB;" d="M16,284h16v16H16V284z"/>
	<path style="fill:#DBDBDB;" d="M8,364h16v16H8V364z"/>
	<path style="fill:#DBDBDB;" d="M232,460h16v16h-16V460z"/>
	<path style="fill:#DBDBDB;" d="M208,444h16v16h-16V444z"/>
	<path style="fill:#DBDBDB;" d="M256,444h16v16h-16V444z"/>
	<path style="fill:#DBDBDB;" d="M400,36h16v16h-16V36z"/>
	<path style="fill:#DBDBDB;" d="M416,84h16v16h-16V84z"/>
	<path style="fill:#DBDBDB;" d="M344,28h16v16h-16V28z"/>
	<path style="fill:#DBDBDB;" d="M448,284h16v16h-16V284z"/>
	<path style="fill:#DBDBDB;" d="M448,356h16v16h-16V356z"/>
	<path style="fill:#DBDBDB;" d="M464,316h16v16h-16V316z"/>
</g>
<path style="fill:#FFA12E;" d="M75.624,448.376c33.299,28.972,83.78,25.464,112.752-7.836c26.168-30.077,26.168-74.839,0-104.916
	L75.624,448.376z"/>
<g>
	<path style="fill:#F46B27;" d="M280,68c-0.042-10.134-6.445-19.15-16-22.528V28h-16v16h-16V28h-16v16h-8c-4.418,0-8,3.582-8,8v64
		c0,4.418,3.582,8,8,8h8v16h16v-16h16v16h16v-17.472c12.454-4.355,19.019-17.981,14.664-30.434c-1.045-2.989-2.674-5.74-4.792-8.094
		C277.822,79.607,280.005,73.907,280,68z M256,108h-40V92h40c4.418,0,8,3.582,8,8S260.418,108,256,108z M256,76h-40V60h40
		c4.418,0,8,3.582,8,8S260.418,76,256,76z"/>
	<path style="fill:#F46B27;" d="M414,196c-1.555,0.008-3.106,0.163-4.632,0.464c9.141-9.599,8.77-24.79-0.829-33.931
		s-24.79-8.77-33.931,0.829c-8.827,9.269-8.827,23.833,0,33.102c-1.436-0.289-2.895-0.444-4.36-0.464
		c-13.255-0.023-24.019,10.703-24.042,23.958c-0.023,13.255,10.703,24.019,23.958,24.042c9.492,0.017,18.101-5.562,21.965-14.232
		c5.395,12.107,19.583,17.549,31.69,12.154c12.107-5.395,17.549-19.583,12.154-31.69C432.108,201.559,423.495,195.98,414,196
		L414,196z M392,172c4.418,0,8,3.582,8,8s-3.582,8-8,8s-8-3.582-8-8S387.582,172,392,172z M396.632,203.536
		c-1.871,1.96-3.394,4.224-4.504,6.696c-1.11-2.459-2.624-4.714-4.48-6.672c1.434,0.281,2.891,0.428,4.352,0.44
		C393.555,203.992,395.106,203.837,396.632,203.536L396.632,203.536z M370.248,228c-4.418,0-8-3.582-8-8s3.582-8,8-8s8,3.582,8,8
		S374.666,228,370.248,228z M414,228c-4.418,0-8-3.582-8-8s3.582-8,8-8s8,3.582,8,8S418.418,228,414,228z"/>
	<path style="fill:#F46B27;" d="M108.312,404l7.112-16H144v-16h-21.464l12.8-28.752l-14.624-6.496L105.024,372H88v16h9.912
		l-9.224,20.752c-1.794,4.038,0.025,8.765,4.063,10.559C93.774,419.765,94.881,420,96,420h64v-16H108.312z"/>
	<path style="fill:#F46B27;" d="M128.688,171.472c-3.661-4.732-9.313-7.493-15.296-7.472H56v16h57.392
		c1.051-0.005,2.045,0.48,2.688,1.312c0.654,0.822,0.882,1.904,0.616,2.92L106.4,225.416c-0.381,1.519-1.746,2.583-3.312,2.584H48
		v16h55.096c8.909,0.009,16.676-6.058,18.824-14.704l10.288-41.176C133.692,182.325,132.391,176.17,128.688,171.472L128.688,171.472
		z"/>
	<path style="fill:#F46B27;" d="M40,196h40v16H40V196z"/>
	<path style="fill:#F46B27;" d="M408,412h-24c-4.418,0-8-3.582-8-8v-32l-19.2,14.4c-2.844,2.133-6.756,2.133-9.6,0L328,372v32
		c0,4.418-3.582,8-8,8h-24v-16h16v-40c0-4.418,3.582-8,8-8c1.731,0,3.415,0.561,4.8,1.6L352,370l27.2-20.4
		c3.535-2.651,8.549-1.935,11.2,1.6c1.039,1.385,1.6,3.069,1.6,4.8v40h16L408,412z"/>
</g>
<g>
</g>
<g>
</g>
<g>
</g>
<g>
</g>
<g>
</g>
<g>
</g>
<g>
</g>
<g>
</g>
<g>
</g>
<g>
</g>
<g>
</g>
<g>
</g>
<g>
</g>
<g>
</g>
<g>
</g>
</svg>
